# xmcd CD database file
#
# Track frame offsets:
#	150
#	605
#	19325
#	33487
#	46095
#	59054
#	75455
#	89645
#	106633
#	115416
#	126612
#	134052
#	160074
#
# Disc length: 2303 seconds
#
# Revision: 0
# Processed by: cddbd v1.5.2PL0 Copyright (c) Steve Scherf et al.
# Submitted via: CDex 1.70beta2
#
DISCID=af08fd0d
DTITLE=John Mooney - Comin' Your Way
DYEAR=1900
DGENRE=Blues
TTITLE0=Brand New Woman
TTITLE1=Shake Hands And Tell Me Goodbye
TTITLE2=Ain't Gonna Get Drunk No More
TTITLE3=I'm Mad
TTITLE4=Train is Leavin'
TTITLE5=Pony Blues
TTITLE6=Take a Walk Around The
TTITLE7=Dirty Rat
TTITLE8=Move to Louisiana
TTITLE9=Shout Sister Shout
TTITLE10=Hot Tub Mambo
TTITLE11=Reap What You Sow
TTITLE12=Stop That Thing
EXTD=
EXTT0=
EXTT1=
EXTT2=
EXTT3=
EXTT4=
EXTT5=
EXTT6=
EXTT7=
EXTT8=
EXTT9=
EXTT10=
EXTT11=
EXTT12=
PLAYORDER=
